<svg xmlns="http://www.w3.org/2000/svg" viewBox="0 0 117.84 43.54"><title>Asset 2</title><g id="Layer_2" data-name="Layer 2"><g id="Layer_1-2" data-name="Layer 1"><path d="M13.63,40.54l-2.78-10.3L8,40.54c-.22.78-.39,1.34-.52,1.68a2.28,2.28,0,0,1-.68.92,1.9,1.9,0,0,1-1.27.4,2.08,2.08,0,0,1-1.06-.24,1.78,1.78,0,0,1-.68-.68,4.34,4.34,0,0,1-.42-1c-.11-.4-.21-.78-.29-1.12L.26,28.89A6.87,6.87,0,0,1,0,27.36a1.53,1.53,0,0,1,.47-1.13,1.61,1.61,0,0,1,1.16-.45,1.32,1.32,0,0,1,1.28.61,6.55,6.55,0,0,1,.57,1.77l2.25,10L8.25,28.8c.19-.72.36-1.27.5-1.64a2.29,2.29,0,0,1,.73-1,2.07,2.07,0,0,1,1.37-.41,2,2,0,0,1,1.37.42,2.35,2.35,0,0,1,.67.94c.13.33.29.89.5,1.66l2.55,9.39,2.25-10a10.75,10.75,0,0,1,.31-1.23,1.93,1.93,0,0,1,.5-.8,1.41,1.41,0,0,1,1-.35,1.6,1.6,0,0,1,1.15.45,1.49,1.49,0,0,1,.48,1.13,7.45,7.45,0,0,1-.26,1.53L18.55,40.46c-.19.78-.36,1.35-.49,1.72a2.17,2.17,0,0,1-.65,1,1.89,1.89,0,0,1-1.31.41,1.92,1.92,0,0,1-1.28-.4,2.06,2.06,0,0,1-.66-.89C14,41.92,13.86,41.35,13.63,40.54Z"/><path d="M35.2,37a7.54,7.54,0,0,1-.44,2.64,6,6,0,0,1-1.29,2.07,5.6,5.6,0,0,1-2,1.33,7.08,7.08,0,0,1-2.63.46,6.83,6.83,0,0,1-2.62-.47,5.71,5.71,0,0,1-3.29-3.4A7.37,7.37,0,0,1,22.47,37a7.54,7.54,0,0,1,.44-2.66A5.61,5.61,0,0,1,26.2,31a7.57,7.57,0,0,1,5.25,0,5.8,5.8,0,0,1,2,1.34,6,6,0,0,1,1.29,2.06A7.7,7.7,0,0,1,35.2,37ZM32,37a4.77,4.77,0,0,0-.86-3,3,3,0,0,0-4-.6,3.06,3.06,0,0,0-1.11,1.43A6.07,6.07,0,0,0,25.68,37a5.68,5.68,0,0,0,.38,2.19,3.16,3.16,0,0,0,1.09,1.44,2.84,2.84,0,0,0,1.67.49,2.77,2.77,0,0,0,2.31-1.09A4.75,4.75,0,0,0,32,37Z"/><path d="M41,38.93V41.6a2.09,2.09,0,0,1-.45,1.46,1.56,1.56,0,0,1-1.17.48,1.45,1.45,0,0,1-1.13-.49,2.08,2.08,0,0,1-.45-1.45V32.69q0-2.16,1.56-2.16a1.29,1.29,0,0,1,1.15.51,2.86,2.86,0,0,1,.39,1.49A5.44,5.44,0,0,1,42,31a2.44,2.44,0,0,1,1.62-.51,4.06,4.06,0,0,1,2,.51,1.49,1.49,0,0,1,1,1.33,1.25,1.25,0,0,1-.4,1,1.23,1.23,0,0,1-.88.38,4.07,4.07,0,0,1-.84-.21,3.83,3.83,0,0,0-1.19-.22,1.71,1.71,0,0,0-1.15.37,2.28,2.28,0,0,0-.69,1.09,7.26,7.26,0,0,0-.34,1.73A24.2,24.2,0,0,0,41,38.93Z"/><path d="M56.52,41.71V41.4a8.21,8.21,0,0,1-1.27,1.2,4.75,4.75,0,0,1-1.36.7,5.07,5.07,0,0,1-1.6.24,4.74,4.74,0,0,1-2.12-.48,5,5,0,0,1-1.7-1.39,6.53,6.53,0,0,1-1.08-2.12A9,9,0,0,1,47,36.91a6.87,6.87,0,0,1,1.47-4.68,4.88,4.88,0,0,1,3.85-1.67,5.26,5.26,0,0,1,2.33.47,6.56,6.56,0,0,1,1.85,1.46V27.77a2.41,2.41,0,0,1,.4-1.49,1.34,1.34,0,0,1,1.12-.5,1.4,1.4,0,0,1,1.12.46,2.07,2.07,0,0,1,.39,1.37v14.1a2,2,0,0,1-.42,1.38,1.45,1.45,0,0,1-1.09.45A1.43,1.43,0,0,1,57,43.07,2,2,0,0,1,56.52,41.71ZM50.23,37a5.45,5.45,0,0,0,.41,2.21,3.08,3.08,0,0,0,1.1,1.38,2.73,2.73,0,0,0,1.54.46,2.87,2.87,0,0,0,1.54-.44,3,3,0,0,0,1.11-1.35A5.36,5.36,0,0,0,56.35,37a5.23,5.23,0,0,0-.42-2.2,3.26,3.26,0,0,0-1.12-1.41,2.73,2.73,0,0,0-1.56-.48,2.66,2.66,0,0,0-1.57.49,3.3,3.3,0,0,0-1.07,1.43A5.8,5.8,0,0,0,50.23,37Z"/><path d="M73.8,43.25H68.55q-1.14,0-1.32-.51c-.13-.34,0-.88.47-1.62L75.3,28.2a4.63,4.63,0,0,1,1.46-1.63,3.49,3.49,0,0,1,1.9-.5h5.57a11.5,11.5,0,0,1,2,.15,2.43,2.43,0,0,1,1.27.59,1.76,1.76,0,0,1,.54.92,2.69,2.69,0,0,1,0,1.23,5.06,5.06,0,0,1-.59,1.42,8.82,8.82,0,0,1-4.8,3.78q2.75,1.06.92,4.19A9.73,9.73,0,0,1,81.33,41a9.88,9.88,0,0,1-3,1.7,10.67,10.67,0,0,1-2.08.46A20.18,20.18,0,0,1,73.8,43.25ZM78,35.62H74.41l-3,5H75.2a5.35,5.35,0,0,0,5-2.55c.51-.86.58-1.49.2-1.88A3.45,3.45,0,0,0,78,35.62Zm.46-6.94-2.61,4.44h3.19a8.12,8.12,0,0,0,2.15-.24,4.35,4.35,0,0,0,1.64-.94,4.23,4.23,0,0,0,.94-1.1c.51-.87.54-1.44.09-1.73a5.35,5.35,0,0,0-2.57-.43Z"/><path d="M99.21,37a14.16,14.16,0,0,1-2,2.63,13.67,13.67,0,0,1-2.51,2.08,11.74,11.74,0,0,1-2.8,1.33,9.41,9.41,0,0,1-2.91.46,4.87,4.87,0,0,1-2.33-.47,2.49,2.49,0,0,1-1.22-1.34,3.53,3.53,0,0,1-.08-2.06A9,9,0,0,1,86.47,37a14.19,14.19,0,0,1,2-2.66A13.36,13.36,0,0,1,91,32.32,11.84,11.84,0,0,1,93.76,31a9.49,9.49,0,0,1,2.89-.47A5.18,5.18,0,0,1,99,31a2.52,2.52,0,0,1,1.24,1.34,3.54,3.54,0,0,1,.07,2.06A9.48,9.48,0,0,1,99.21,37ZM96,37a4.86,4.86,0,0,0,.93-3c-.15-.73-.71-1.09-1.67-1.09a4.32,4.32,0,0,0-1.94.49,7.16,7.16,0,0,0-1.95,1.43A11.29,11.29,0,0,0,89.68,37a7.15,7.15,0,0,0-.91,2.19A1.71,1.71,0,0,0,89,40.67a1.68,1.68,0,0,0,1.37.49,5,5,0,0,0,3-1.09A9.78,9.78,0,0,0,96,37Z"/><path d="M99.12,41.6l8.16-13.88a4.6,4.6,0,0,1,1.28-1.45,2.53,2.53,0,0,1,1.45-.49c.48,0,.78.16.88.48a2,2,0,0,1-.41,1.46L102.31,41.6a4.36,4.36,0,0,1-1.3,1.46,2.69,2.69,0,0,1-1.46.48c-.47,0-.75-.17-.84-.5A2,2,0,0,1,99.12,41.6Z"/><path d="M112.21,30.82h.35l1.14-1.93c.3-.51.55-.92.75-1.21a3.74,3.74,0,0,1,.67-.75,3.47,3.47,0,0,1,.86-.54,2.16,2.16,0,0,1,.9-.2.83.83,0,0,1,.83.45.9.9,0,0,1,0,.75,10,10,0,0,1-.64,1.25l-1.29,2.18h1.18c.45,0,.73.1.84.32a.84.84,0,0,1-.13.82,2.09,2.09,0,0,1-1,.91,4.5,4.5,0,0,1-1.61.25h-.6L110.94,39c-.29.5-.5.88-.62,1.15a.94.94,0,0,0-.11.66c.05.17.25.25.6.25a4.64,4.64,0,0,0,.82-.1,4.55,4.55,0,0,1,.81-.1.5.5,0,0,1,.51.31.86.86,0,0,1-.14.77,2.88,2.88,0,0,1-1.54,1.18,7.42,7.42,0,0,1-2.67.41,2.78,2.78,0,0,1-2-.5,1.32,1.32,0,0,1-.2-1.4,13.38,13.38,0,0,1,1.16-2.38l3.62-6.14h-.43c-.46,0-.74-.11-.86-.32a.87.87,0,0,1,.13-.84,2.3,2.3,0,0,1,.87-.82A2.52,2.52,0,0,1,112.21,30.82Z"/></g><g id="Layer_2-2" data-name="Layer 2"><polygon points="72.26 0 57.51 21.5 68.69 20.63 63.51 36.81 77.82 14.5 67.66 14.94 72.26 0"/></g></g></svg>